<svg xmlns="http://www.w3.org/2000/svg" width="26" height="26" viewBox="0 0 26 26" fill="none"><circle cx="13" cy="13" r="13" fill="url(#paint0_linear_3600_80)"/><path d="M17.5571 12.3414L10.6345 8.11574C10.5192 8.04266 10.386 8.00267 10.2495 8.00013C10.113 7.99759 9.97847 8.03259 9.86051 8.10131C9.74082 8.16699 9.64103 8.26371 9.57166 8.3813C9.50229 8.49889 9.4659 8.63301 9.46631 8.76954V17.2305C9.4659 17.367 9.50229 17.5011 9.57166 17.6187C9.64103 17.7363 9.74082 17.833 9.86051 17.8987C9.97847 17.9674 10.113 18.0024 10.2495 17.9999C10.386 17.9973 10.5192 17.9573 10.6345 17.8843L17.5571 13.6586C17.6705 13.5902 17.7644 13.4936 17.8295 13.3782C17.8947 13.2628 17.9289 13.1325 17.9289 13C17.9289 12.8675 17.8947 12.7372 17.8295 12.6218C17.7644 12.5064 17.6705 12.4098 17.5571 12.3414V12.3414Z" fill="#F5F5F5"/><defs><linearGradient id="paint0_linear_3600_80" x1="9.62963" y1="-4.40177e-08" x2="14.95" y2="26.65" gradientUnits="userSpaceOnUse"><stop stop-color="#ff8d76"/><stop offset="1" stop-color="#ff0c55"/></linearGradient></defs></svg>