<svg xmlns="http://www.w3.org/2000/svg" width="1em" height="1em" viewBox="0 0 14 14" fill="none"><path d="M6.11236 1.27499C6.26204 0.814331 6.91374 0.814332 7.06342 1.27499L8.27175 4.99384C8.33868 5.19985 8.53066 5.33933 8.74727 5.33933H12.6575C13.1419 5.33933 13.3433 5.95913 12.9514 6.24383L9.78795 8.54221C9.61271 8.66953 9.53938 8.89522 9.60632 9.10123L10.8146 12.8201C10.9643 13.2807 10.4371 13.6638 10.0452 13.3791L6.88178 11.0807C6.70654 10.9534 6.46924 10.9534 6.294 11.0807L3.13056 13.3791C2.7387 13.6638 2.21146 13.2807 2.36114 12.8201L3.56946 9.10123C3.6364 8.89522 3.56307 8.66953 3.38783 8.54221L0.224386 6.24383C-0.167471 5.95913 0.0339185 5.33933 0.51828 5.33933H4.42851C4.64512 5.33933 4.8371 5.19985 4.90404 4.99383L6.11236 1.27499Z" fill="url(#paint0_linear_153_489)"/><defs><linearGradient id="paint0_linear_153_489" x1="6.58789" y1="-0.188538" x2="6.58789" y2="15.8115" gradientUnits="userSpaceOnUse"><stop stop-color="#FF9F2E"/><stop offset="1" stop-color="#FFEA2E"/></linearGradient></defs></svg>